<?xml version="1.0" standalone="no"?>
<!DOCTYPE svg PUBLIC "-//W3C//DTD SVG 20010904//EN"
 "http://www.w3.org/TR/2001/REC-SVG-20010904/DTD/svg10.dtd">
<svg version="1.0" xmlns="http://www.w3.org/2000/svg"
 width="377.600000pt" height="567.200000pt" viewBox="0 0 377.600000 567.200000"
 preserveAspectRatio="xMidYMid meet">
<metadata>
Created by potrace 1.13, written by Peter Selinger 2001-2015
</metadata>
<g transform="translate(0.000000,567.200000) scale(0.080000,-0.080000)"
fill="#000000" stroke="none">
<path d="M0 3545 l0 -3545 2360 0 2360 0 0 3545 0 3545 -2360 0 -2360 0 0
-3545z m2891 2520 c12 11 59 13 59 2 0 -8 3 -9 8 -1 15 22 115 -4 126 -32 3
-9 10 -12 16 -9 5 3 10 1 10 -4 0 -6 16 -27 35 -46 19 -20 40 -55 46 -77 14
-56 20 -126 9 -133 -9 -5 -5 -99 5 -115 3 -6 2 -10 -2 -10 -11 0 -8 -83 2
-101 5 -8 4 -10 -3 -5 -8 5 -12 -5 -12 -34 0 -25 4 -39 10 -35 6 3 7 -1 3 -10
-4 -12 -8 -13 -13 -5 -5 7 -13 9 -20 5 -9 -6 -11 -4 -5 6 7 11 6 12 -7 2 -8
-7 -18 -10 -22 -6 -4 4 -4 0 0 -10 7 -19 -15 -24 -33 -6 -7 7 -24 8 -43 4 -24
-5 -29 -10 -19 -16 10 -6 7 -9 -11 -10 -49 -3 -55 -4 -53 -14 1 -7 -23 -9 -65
-7 -74 4 -186 -14 -201 -32 -6 -7 -26 -11 -46 -10 -19 2 -35 0 -35 -5 0 -4
-10 -7 -22 -7 -13 1 -22 -4 -20 -11 1 -8 -9 -13 -25 -13 -19 0 -24 -3 -15 -9
11 -7 11 -9 -2 -14 -23 -9 -20 -25 6 -29 12 -2 23 -10 25 -18 4 -13 3 -13 -6
0 -6 8 -11 10 -11 5 0 -6 5 -16 11 -22 9 -9 5 -24 -15 -58 -25 -46 -26 -56
-11 -126 5 -21 39 -49 59 -49 2 0 1 22 -2 49 -3 39 0 57 18 85 12 20 26 36 31
36 6 0 8 4 5 8 -8 14 28 48 78 72 25 12 44 25 42 28 -2 4 17 8 42 10 25 2 73
9 106 17 58 14 136 11 136 -5 0 -4 18 -13 40 -20 22 -7 40 -16 40 -19 0 -3 20
-19 45 -34 50 -32 51 -33 32 -50 -15 -15 -37 -20 -37 -9 0 4 -18 6 -40 4 -22
-2 -59 3 -84 13 -25 10 -57 15 -70 13 -16 -3 -23 -1 -19 5 11 18 -153 0 -196
-22 -36 -19 -111 -94 -111 -113 0 -4 8 -8 18 -9 9 0 35 -1 58 -2 l40 -2 -15
28 c-15 26 -15 29 9 47 29 22 52 26 49 8 -3 -25 1 -36 29 -69 22 -28 33 -33
59 -31 38 4 93 51 93 81 0 12 4 21 9 21 18 0 42 -32 36 -48 -3 -8 0 -21 6 -28
6 -8 8 -21 5 -31 -10 -24 14 -34 43 -18 14 7 39 13 55 13 15 0 32 6 37 13 5 8
9 10 9 5 0 -5 9 -1 19 8 37 34 84 -6 92 -79 2 -16 10 -36 17 -43 14 -15 16
-36 3 -28 -5 3 -8 -5 -7 -19 0 -14 3 -25 6 -25 8 0 0 -92 -9 -115 -15 -37 -30
-90 -35 -127 -3 -21 -8 -54 -12 -73 -3 -20 -9 -33 -15 -30 -5 4 -9 0 -9 -8 0
-8 -8 -32 -17 -53 -9 -22 -17 -43 -18 -49 -4 -35 -29 -105 -37 -105 -5 0 -6
-5 -2 -12 4 -7 3 -8 -4 -4 -6 3 -16 -2 -21 -13 -16 -29 -13 -38 4 -15 8 10 14
15 14 9 0 -13 -28 -50 -37 -48 -3 1 -9 10 -13 20 -6 15 -9 12 -14 -14 -4 -17
-14 -34 -22 -37 -8 -3 -12 -9 -10 -13 2 -5 -4 -16 -15 -25 -10 -10 -18 -15
-18 -12 0 4 -33 -27 -73 -67 -40 -41 -77 -74 -82 -74 -6 0 -14 -10 -20 -22 -6
-15 -15 -21 -26 -18 -10 3 -20 1 -24 -5 -3 -6 3 -10 14 -10 26 0 27 -20 1 -50
-11 -13 -20 -29 -20 -35 0 -11 -14 -21 -40 -30 -3 -1 -18 -7 -34 -14 -23 -9
-31 -9 -38 1 -6 10 -8 10 -8 -2 0 -13 -1 -13 -10 0 -5 8 -10 10 -10 4 0 -6
-11 -11 -25 -11 -13 0 -22 3 -19 8 3 5 0 9 -5 9 -6 0 -11 -10 -11 -22 0 -21 0
-21 -17 -2 -11 13 -29 19 -45 18 -16 -2 -28 2 -28 9 0 6 -7 2 -15 -9 -11 -14
-14 -15 -15 -4 0 9 -3 11 -8 5 -7 -10 -82 -14 -82 -5 0 12 -41 8 -46 -4 -5
-14 -60 -14 -114 -1 -19 5 -38 9 -41 9 -3 1 -13 9 -23 19 -10 9 -22 15 -27 12
-5 -4 -9 -1 -9 6 0 6 -8 18 -17 25 -18 12 -19 16 -22 54 -1 14 -6 18 -18 13
-9 -4 -14 -2 -11 3 10 16 -11 54 -30 54 -27 0 -33 10 -21 34 9 19 8 19 -7 -1
-16 -23 -54 -32 -54 -13 0 6 0 13 -1 18 -1 11 -31 43 -51 53 -14 8 -16 6 -11
-7 3 -9 -5 -6 -22 10 -15 14 -32 23 -38 19 -5 -3 -7 -1 -3 5 3 6 -2 13 -12 16
-10 4 -26 21 -35 39 -11 21 -15 24 -11 9 5 -21 4 -22 -15 -11 -14 9 -17 17
-10 25 7 9 5 14 -8 18 -10 3 -24 15 -31 27 -34 55 -53 92 -47 97 3 3 5 1 5 -4
0 -5 10 -20 21 -34 17 -20 18 -21 10 -4 -10 20 -22 88 -23 124 0 8 -6 22 -13
30 -8 8 -22 40 -33 70 -11 30 -29 80 -42 110 -32 81 -39 118 -35 190 1 36 3
80 4 98 1 23 6 32 19 32 12 0 13 3 5 8 -10 6 -6 24 14 75 17 44 29 63 34 55 5
-7 6 7 3 30 -3 29 -1 42 6 37 5 -3 10 0 10 8 0 15 13 21 110 54 30 10 57 21
58 26 2 4 13 7 25 7 16 0 18 3 9 9 -19 12 34 21 122 21 63 0 84 -5 176 -46 58
-25 108 -50 111 -56 9 -14 36 33 34 59 -1 12 2 20 7 17 4 -3 8 5 7 18 -1 28
-17 70 -19 48 0 -8 -7 -24 -15 -34 -15 -19 -15 -19 -15 3 0 12 4 20 9 17 5 -4
7 4 3 16 -3 12 -7 17 -9 11 -3 -8 -12 -7 -31 3 -15 7 -45 14 -67 15 -22 1 -48
6 -58 11 -16 8 -82 15 -199 21 -20 1 -34 5 -31 10 2 4 -5 7 -16 7 -12 0 -21 5
-21 11 0 19 -44 -2 -72 -34 -21 -23 -28 -27 -28 -14 0 9 5 17 12 17 6 0 8 3 5
7 -4 3 1 15 10 26 17 19 17 20 -4 8 -19 -10 -22 -9 -17 4 4 8 1 21 -5 29 -6 7
-7 17 -3 21 4 5 -4 2 -18 -7 -24 -15 -26 -14 -26 3 0 11 3 19 7 19 12 0 4 31
-10 40 -9 5 -10 10 -2 14 6 4 11 12 11 17 0 6 -6 7 -12 2 -7 -4 -5 5 5 20 14
21 14 25 2 21 -12 -5 -13 -1 -6 22 19 60 22 86 10 78 -7 -4 -9 -3 -6 3 12 19
16 68 8 82 -6 9 -4 19 6 29 12 12 12 16 1 23 -10 7 -10 9 0 9 6 0 12 6 12 13
0 7 11 28 25 47 14 19 25 28 25 22 0 -7 13 2 28 19 19 21 38 32 61 34 18 1 37
8 42 16 7 11 9 11 9 1 0 -9 5 -10 18 -4 9 5 26 8 36 6 11 -1 24 0 30 3 16 11
295 23 301 13 3 -6 106 -4 135 3 8 2 32 9 52 16 21 7 41 10 45 8 5 -3 45 1 91
7 45 7 82 9 82 4 0 -5 6 -6 13 -1 6 4 38 9 70 9 32 1 61 4 64 7 3 4 13 2 23
-3 10 -5 19 -7 21 -5z m-1591 -992 c25 -9 47 -19 50 -22 3 -4 12 -6 20 -6 8 0
19 -9 25 -20 5 -11 19 -20 29 -20 21 0 29 -19 40 -100 l7 -50 -26 29 c-24 27
-27 27 -44 12 -11 -10 -21 -27 -24 -39 -3 -12 -10 -37 -15 -54 -6 -18 -7 -33
-3 -33 5 0 29 19 55 41 26 23 49 39 52 36 8 -7 44 -190 39 -195 -2 -3 -25 1
-50 8 -46 13 -94 59 -96 91 0 13 -17 -16 -18 -33 -2 -21 92 -82 149 -98 14 -4
27 -16 31 -31 31 -110 -24 -162 -124 -116 -47 21 -59 33 -93 93 -22 38 -57
110 -78 159 -21 50 -49 114 -62 144 -16 35 -24 72 -24 108 0 47 4 59 29 84 34
34 65 37 131 12z m2426 -24 c29 -32 24 -153 -9 -244 -94 -259 -157 -345 -256
-345 -54 0 -103 91 -73 136 8 12 98 54 117 54 6 0 22 12 36 28 13 15 20 24 15
20 -5 -4 -16 -2 -24 5 -10 7 -13 8 -9 1 8 -13 -22 -35 -70 -52 -46 -15 -61 4
-40 55 8 21 18 64 21 95 4 31 14 62 22 69 8 6 14 26 14 43 0 24 -3 28 -11 16
-7 -11 -8 -6 -3 20 7 35 44 94 44 70 0 -9 5 -8 18 3 51 47 175 62 208 26z
m-1985 -1409 c12 -36 35 -90 51 -120 48 -89 227 -365 272 -419 22 -27 64 -79
91 -115 55 -73 67 -83 38 -33 -11 18 -23 44 -26 58 -4 14 -19 41 -34 61 -35
44 -62 79 -121 159 -129 173 -162 221 -156 231 4 6 2 8 -4 5 -9 -6 -63 75 -83
123 -6 16 9 60 21 60 4 0 8 17 9 38 1 20 3 42 3 49 1 7 6 9 11 6 6 -4 8 1 4
11 -6 16 -5 16 15 1 13 -8 27 -15 33 -15 5 0 4 4 -3 9 -10 6 -9 10 7 14 12 3
19 2 17 -2 -3 -4 4 -20 15 -37 10 -16 19 -24 19 -19 -1 6 -7 18 -15 28 -7 11
-11 25 -9 32 3 7 -2 15 -10 18 -9 4 -16 2 -16 -3 0 -16 -37 -11 -44 6 -12 32
14 45 40 19 17 -17 34 -20 34 -5 0 5 7 7 15 4 12 -5 13 -10 4 -20 -6 -7 -8
-23 -4 -35 6 -16 9 -18 16 -8 4 8 3 19 -3 26 -15 18 0 16 18 -2 9 -8 13 -15 9
-15 -3 0 2 -11 11 -25 9 -14 14 -28 10 -32 -7 -7 23 -43 36 -43 5 0 7 4 4 9
-15 24 36 -5 69 -40 20 -21 29 -36 19 -32 -12 4 -15 3 -10 -5 16 -26 42 -11
37 21 -3 17 17 5 29 -19 12 -22 12 -27 0 -34 -13 -9 -9 -14 6 -7 3 1 12 -9 19
-23 8 -14 14 -19 15 -12 0 7 5 10 11 6 6 -3 16 0 21 7 7 10 8 9 4 -6 -5 -16
-1 -21 16 -22 13 -1 27 -8 33 -15 5 -7 26 -15 45 -16 19 -2 39 -7 44 -12 5 -5
-3 -7 -18 -6 -14 2 -26 -1 -26 -5 0 -5 9 -9 19 -9 10 0 22 -7 25 -16 4 -9 13
-14 21 -10 8 3 15 1 15 -4 0 -11 67 -42 90 -41 8 0 30 1 48 1 18 1 30 5 27 10
-3 4 9 13 25 19 17 5 30 13 30 16 0 3 -5 3 -12 -1 -7 -4 -8 -3 -4 5 5 7 13 8
23 2 21 -11 61 -2 41 10 -10 7 -9 12 6 26 18 16 19 16 7 1 -8 -10 -10 -18 -6
-18 5 0 17 8 28 18 11 9 17 11 12 3 -6 -10 -2 -11 16 -6 24 8 24 7 5 -13 -18
-21 -18 -21 8 -9 14 7 26 15 26 18 0 7 94 59 105 59 4 0 3 -6 -1 -12 -4 -7 -5
-11 -1 -8 3 3 6 10 7 15 3 21 32 43 51 38 21 -6 27 12 7 20 -10 4 -10 6 -1 6
23 2 25 -21 4 -40 -18 -17 -21 -17 -21 -4 0 9 -5 13 -11 9 -15 -9 4 -27 33
-31 16 -2 19 0 10 6 -11 7 -11 9 0 14 8 3 15 0 15 -6 0 -7 4 -20 8 -30 5 -13
3 -16 -7 -12 -9 4 -15 0 -15 -9 0 -8 6 -12 12 -10 7 3 18 -2 25 -11 7 -8 9
-15 4 -15 -5 0 -3 -4 5 -9 12 -8 12 -12 2 -25 -8 -10 -9 -16 -3 -16 6 0 16 8
21 18 9 14 10 15 11 1 0 -9 -3 -19 -7 -22 -3 -4 -7 -18 -9 -31 -4 -35 -131
-212 -214 -296 -15 -16 -40 -46 -56 -67 -15 -21 -39 -51 -53 -68 -14 -16 4 -2
39 32 70 67 163 150 196 173 23 17 116 133 160 199 33 51 60 185 68 345 3 54
7 101 10 104 7 7 23 -35 53 -143 20 -73 26 -121 30 -254 8 -237 -13 -357 -92
-526 -13 -27 -38 -97 -55 -155 -17 -58 -40 -133 -50 -166 -10 -34 -24 -91 -30
-125 -7 -35 -18 -77 -26 -93 -8 -15 -21 -78 -30 -140 -21 -156 -84 -540 -90
-545 -2 -2 -4 7 -4 21 0 39 -12 88 -21 88 -8 0 -11 -10 -24 -65 l-7 -30 -28
55 c-15 30 -44 119 -64 197 -20 78 -43 159 -50 181 -8 22 -11 44 -7 48 5 5 20
54 35 109 46 174 68 241 75 224 9 -24 93 -110 104 -106 6 2 15 24 22 49 l11
46 -80 165 c-91 185 -109 211 -137 197 -10 -6 -20 -18 -23 -28 -13 -41 -50
-48 -264 -47 -168 0 -205 3 -212 15 -4 8 -15 24 -24 35 -8 11 -32 45 -52 75
-29 44 -34 58 -25 72 15 24 14 26 -10 39 -18 9 -26 6 -51 -18 -36 -34 -107
-139 -115 -171 -3 -13 0 -35 6 -48 6 -14 11 -43 11 -64 0 -50 12 -50 45 -3 15
23 25 31 25 21 0 -9 11 -29 24 -45 28 -34 59 -93 76 -148 7 -22 36 -96 65
-165 28 -69 57 -146 64 -172 11 -49 12 -45 -77 -413 -9 -38 -10 -38 -11 -9 -1
17 -9 46 -18 65 l-17 34 -8 -33 c-5 -17 -10 -32 -12 -32 -2 0 -41 114 -86 253
-45 138 -104 299 -130 357 -27 58 -58 145 -69 194 -12 49 -26 95 -31 101 -9
11 -30 73 -78 225 -11 36 -22 85 -26 110 -9 63 -26 136 -46 200 -30 91 -43
238 -30 328 13 93 22 123 63 226 l32 79 7 -59 c4 -32 17 -88 29 -124z m1162
-103 c-10 -10 -27 -24 -38 -29 -19 -11 -19 -10 -2 9 9 11 14 23 10 27 -4 4 1
4 11 0 12 -5 17 -4 13 3 -3 5 0 10 8 10 12 0 12 -4 -2 -20z m-383 -49 c0 -5 0
-12 0 -17 0 -5 -15 -7 -32 -5 -18 3 -43 5 -55 5 -13 1 -20 6 -17 14 5 13 104
16 104 3z m514 -39 c-3 -20 0 -28 8 -23 7 5 8 3 4 -5 -6 -9 -13 -8 -26 4 -16
14 -17 21 -7 36 17 28 25 23 21 -12z"/>
<path d="M1935 5180 c-27 -4 -69 -15 -93 -25 -23 -9 -51 -15 -61 -12 -26 6
-65 -46 -57 -78 3 -12 14 -25 23 -28 10 -3 41 -12 69 -20 50 -14 51 -14 46 5
-3 14 2 21 17 25 l22 6 -21 14 c-26 18 -25 27 4 41 21 9 26 8 31 -8 12 -38 63
-70 112 -70 26 0 43 3 40 6 -3 4 3 18 13 32 11 13 20 33 20 43 0 31 17 30 50
-3 30 -30 31 -33 14 -45 -16 -11 -11 -13 34 -13 29 0 52 2 52 5 0 21 -35 66
-69 89 -63 44 -130 54 -246 36z"/>
<path d="M2530 4554 c-55 -17 -106 -18 -165 -2 -40 11 -50 10 -79 -6 -19 -10
-40 -15 -46 -11 -8 5 -8 2 0 -12 13 -20 55 -29 65 -13 9 15 88 12 127 -5 32
-13 39 -12 74 5 46 24 122 27 130 5 7 -18 38 -4 53 24 9 15 7 17 -13 14 -13
-3 -27 0 -30 6 -10 15 -61 13 -116 -5z"/>
<path d="M2544 4452 c4 -7 2 -20 -3 -29 -6 -10 -11 -12 -11 -5 0 19 -21 14
-41 -9 -16 -19 -19 -20 -25 -5 -8 20 -24 21 -24 0 0 -8 -5 -12 -10 -9 -6 4 -7
13 -1 24 8 13 5 17 -12 18 -12 0 -16 -1 -9 -4 6 -3 12 -8 12 -12 0 -9 -30 -8
-45 1 -27 16 -101 -5 -116 -33 -5 -11 -14 -17 -18 -15 -4 3 -17 -1 -27 -9 -10
-8 -25 -15 -33 -15 -8 0 -23 -8 -33 -17 -18 -16 -18 -16 -12 1 7 18 6 18 -19
1 -15 -9 -27 -21 -27 -26 0 -5 -7 -9 -15 -9 -8 0 -15 -5 -15 -12 0 -6 -3 -8
-7 -5 -3 4 4 19 18 33 16 17 18 23 7 19 -22 -9 -51 -53 -43 -66 4 -5 1 -17 -6
-25 -6 -8 -14 -36 -16 -61 -2 -26 -9 -54 -16 -63 -10 -13 -10 -13 3 -3 13 10
18 8 28 -8 7 -10 21 -19 32 -19 11 0 20 -5 20 -10 0 -11 82 48 88 63 7 15 21
6 16 -10 -5 -17 -5 -17 9 0 18 21 23 21 55 -1 37 -25 58 -22 54 8 -1 18 1 21
7 11 7 -11 9 -11 14 0 4 9 6 10 6 2 1 -7 8 -10 16 -7 8 4 13 9 11 13 -3 4 19
6 47 6 29 -1 79 1 112 5 61 6 119 -5 110 -20 -3 -5 4 -7 15 -5 11 2 18 0 15
-6 -4 -5 -3 -9 2 -10 31 -3 49 -10 59 -23 12 -17 29 -22 19 -6 -3 6 0 10 7 10
9 0 10 2 1 8 -9 5 -9 11 0 22 17 22 96 24 119 3 10 -9 32 -17 48 -17 40 -1 57
41 34 86 -9 18 -11 27 -4 23 6 -4 4 8 -6 26 -10 19 -17 37 -16 41 1 3 -19 23
-43 43 -25 20 -45 33 -45 29 0 -3 -8 0 -17 7 -10 7 -7 1 7 -15 l25 -29 -25 13
c-14 8 -26 11 -27 9 -1 -2 -5 0 -10 5 -5 5 -2 6 6 1 10 -6 12 -4 7 4 -6 9 -13
8 -27 -5 -19 -17 -21 -16 -50 15 -24 27 -36 32 -60 29 -16 -3 -33 0 -36 5 -4
6 -1 7 8 2 8 -5 11 -4 6 0 -4 5 -17 10 -29 12 -17 3 -18 1 -9 -11 9 -11 8 -15
-4 -20 -9 -3 -15 0 -15 10 0 10 -6 14 -14 11 -9 -4 -12 0 -9 13 3 10 -1 21 -8
25 -8 5 -10 4 -5 -3z m21 -112 c3 0 3 4 0 10 -3 6 1 7 9 4 9 -3 14 -9 13 -13
-3 -10 50 -71 61 -71 14 0 23 -28 11 -36 -6 -3 -23 0 -39 6 -23 10 -44 10 -94
0 -50 -9 -73 -9 -101 0 -29 10 -44 9 -82 -4 -57 -20 -58 -20 -43 -1 7 9 10 18
7 22 -7 6 21 28 71 56 23 13 32 15 30 5 -2 -7 3 -12 10 -10 6 1 12 -2 12 -8 0
-5 19 -8 43 -6 25 2 41 7 40 14 -2 7 5 12 14 12 13 0 14 3 5 12 -19 19 -14 30
7 18 11 -5 22 -10 26 -10z"/>
<path d="M2687 4064 c-3 -3 -50 -8 -104 -10 -131 -6 -270 -31 -270 -50 0 -7
10 -17 21 -20 12 -4 25 -13 31 -20 13 -18 75 -28 75 -13 0 28 30 -16 31 -45 0
-25 2 -27 8 -12 5 14 10 16 15 8 4 -7 15 -12 24 -11 14 0 14 2 2 6 -17 7 -30
23 -30 38 0 6 4 4 9 -4 5 -8 23 -15 41 -16 25 -2 34 2 38 17 3 11 10 17 19 14
7 -3 16 1 19 9 4 8 10 12 15 9 5 -3 9 0 9 6 0 6 4 9 9 6 5 -3 12 5 15 18 3 13
16 27 28 31 20 6 21 8 5 12 -14 4 -16 8 -6 19 11 14 8 20 -4 8z"/>
<path d="M1186 5028 c-48 -69 31 -295 149 -424 6 -8 15 -8 26 -1 13 8 9 16
-28 50 -30 28 -48 54 -55 83 -7 24 -16 40 -22 37 -5 -4 -7 1 -3 10 3 9 1 17
-5 19 -17 6 -23 123 -8 158 7 17 23 39 36 49 l23 18 -25 12 c-39 17 -71 13
-88 -11z"/>
<path d="M3635 5029 c-42 -22 -77 -50 -40 -32 11 6 26 8 33 6 17 -6 44 -61 49
-98 3 -32 -22 -132 -40 -153 -6 -7 -12 -28 -14 -45 -2 -21 -14 -43 -35 -62
-18 -16 -32 -33 -30 -37 3 -12 -23 -9 -36 4 -7 7 -12 8 -12 2 0 -5 12 -17 26
-28 26 -19 26 -19 50 10 58 69 144 292 144 372 0 82 -25 98 -95 61z"/>
<path d="M3480 4890 c-29 -37 -31 -43 -20 -74 12 -39 44 -71 59 -61 6 3 11 1
11 -4 0 -6 7 -11 15 -11 8 0 15 4 15 10 0 21 -42 119 -56 131 -13 10 -12 14 2
30 10 11 15 19 11 19 -3 0 -20 -18 -37 -40z"/>
</g>
</svg>
